{
  "asset": {
    "generator": "gltfeditor.com",
    "version": "2.0"
  },
  "buffers": [
    {
      "uri": "data:application/octet-stream;base64,",
      "byteLength": 1390640
    }
  ],
  "bufferViews": [
    {
      "buffer": 0,
      "byteOffset": 0,
      "byteLength": 20808,
      "byteStride": 12,
      "target": 34962
    },
    {
      "buffer": 0,
      "byteOffset": 20808,
      "byteLength": 20808,
      "byteStride": 12,
      "target": 34962
    },
    {
      "buffer": 0,
      "byteOffset": 41616,
      "byteLength": 13872,
      "byteStride": 8,
      "target": 34962
    },
    {
      "buffer": 0,
      "byteOffset": 55488,
      "byteLength": 10848,
      "target": 34963
    },
    {
      "buffer": 0,
      "byteOffset": 66336,
      "byteLength": 92952,
      "byteStride": 12,
      "target": 34962
    },
    {
      "buffer": 0,
      "byteOffset": 159288,
      "byteLength": 92952,
      "byteStride": 12,
      "target": 34962
    },
    {
      "buffer": 0,
      "byteOffset": 252240,
      "byteLength": 61968,
      "byteStride": 8,
      "target": 34962
    },
    {
      "buffer": 0,
      "byteOffset": 314208,
      "byteLength": 42732,
      "target": 34963
    },
    {
      "buffer": 0,
      "byteOffset": 356940,
      "byteLength": 319440,
      "byteStride": 12,
      "target": 34962
    },
    {
      "buffer": 0,
      "byteOffset": 676380,
      "byteLength": 319440,
      "byteStride": 12,
      "target": 34962
    },
    {
      "buffer": 0,
      "byteOffset": 995820,
      "byteLength": 212960,
      "byteStride": 8,
      "target": 34962
    },
    {
      "buffer": 0,
      "byteOffset": 1208780,
      "byteLength": 181860,
      "target": 34963
    }
  ],
  "accessors": [
    {
      "bufferView": 0,
      "byteOffset": 0,
      "componentType": 5126,
      "normalized": false,
      "count": 1734,
      "min": [
        50.89019012451172,
        7.744010925292969,
        -15.699999809265137
      ],
      "max": [
        67.93331146240234,
        31.368560791015625,
        15.699999809265137
      ],
      "type": "VEC3"
    },
    {
      "bufferView": 1,
      "byteOffset": 0,
      "componentType": 5126,
      "normalized": false,
      "count": 1734,
      "min": [
        -0.8192836046218872,
        -0.5736837983131409,
        -0.0003999788605142385
      ],
      "max": [
        0.8193305730819702,
        0.5739119052886963,
        0.00030000871629454195
      ],
      "type": "VEC3"
    },
    {
      "bufferView": 2,
      "byteOffset": 0,
      "componentType": 5126,
      "normalized": false,
      "count": 1734,
      "min": [
        -1.399999976158142,
        -0.5700000524520874
      ],
      "max": [
        1.399999976158142,
        2.570000171661377
      ],
      "type": "VEC2"
    },
    {
      "bufferView": 3,
      "byteOffset": 0,
      "componentType": 5123,
      "normalized": false,
      "count": 5424,
      "min": [
        0
      ],
      "max": [
        1733
      ],
      "type": "SCALAR"
    },
    {
      "bufferView": 4,
      "byteOffset": 0,
      "componentType": 5126,
      "normalized": false,
      "count": 7746,
      "min": [
        -97.70726013183594,
        0,
        -42.5
      ],
      "max": [
        75.65375518798828,
        51,
        42.5
      ],
      "type": "VEC3"
    },
    {
      "bufferView": 5,
      "byteOffset": 0,
      "componentType": 5126,
      "normalized": false,
      "count": 7746,
      "min": [
        -1,
        -1,
        -1
      ],
      "max": [
        1,
        1,
        1
      ],
      "type": "VEC3"
    },
    {
      "bufferView": 6,
      "byteOffset": 0,
      "componentType": 5126,
      "normalized": false,
      "count": 7746,
      "min": [
        -14.220726013183594,
        -3.3673009872436523
      ],
      "max": [
        14.520726203918457,
        7.6522111892700195
      ],
      "type": "VEC2"
    },
    {
      "bufferView": 7,
      "byteOffset": 0,
      "componentType": 5123,
      "normalized": false,
      "count": 21366,
      "min": [
        0
      ],
      "max": [
        7745
      ],
      "type": "SCALAR"
    },
    {
      "bufferView": 8,
      "byteOffset": 0,
      "componentType": 5126,
      "normalized": false,
      "count": 26620,
      "min": [
        -86,
        -16.98113250732422,
        -69.49656677246094
      ],
      "max": [
        53.99967956542969,
        32.99946975708008,
        69.5
      ],
      "type": "VEC3"
    },
    {
      "bufferView": 9,
      "byteOffset": 0,
      "componentType": 5126,
      "normalized": false,
      "count": 26620,
      "min": [
        -1,
        -1,
        -1
      ],
      "max": [
        1,
        1,
        1
      ],
      "type": "VEC3"
    },
    {
      "bufferView": 10,
      "byteOffset": 0,
      "componentType": 5126,
      "normalized": false,
      "count": 26620,
      "min": [
        -2.5,
        -7.303248405456543
      ],
      "max": [
        4.06018590927124,
        8.853981971740723
      ],
      "type": "VEC2"
    },
    {
      "bufferView": 11,
      "byteOffset": 0,
      "componentType": 5123,
      "normalized": false,
      "count": 90930,
      "min": [
        0
      ],
      "max": [
        26619
      ],
      "type": "SCALAR"
    }
  ],
  "scene": 0,
  "scenes": [
    {
      "nodes": [
        0
      ],
      "name": "Scene"
    }
  ],
  "nodes": [
    {
      "name": "Rover-car",
      "extensions": {
        "KHR_node_visibility": {
          "visible": true
        }
      },
      "mesh": 0
    }
  ],
  "meshes": [
    { 
      "name": "robot",
      "primitives": [
        {
          "material": 0,
          "mode": 4,
          "attributes": {
            "POSITION": 0,
            "NORMAL": 1,
            "TEXCOORD_0": 2
          },
          "indices": 3
        },
        {
          "material": 1,
          "mode": 4,
          "attributes": {
            "POSITION": 4,
            "NORMAL": 5,
            "TEXCOORD_0": 6
          },
          "indices": 7
        },
        {
          "material": 2,
          "mode": 4,
          "attributes": {
            "POSITION": 8,
            "NORMAL": 9,
            "TEXCOORD_0": 10
          },
          "indices": 11
        }
      ]
    }
  ],
  "materials": [
    {
      "name": "Opaque(55,126,255)",
      "pbrMetallicRoughness": {
        "baseColorFactor": [
          0.8,
          0.8,
          0.8,
          1
        ],
        "metallicFactor": 0,
        "roughnessFactor": 1
      },
      "emissiveFactor": [
        0,
        0,
        0
      ],
      "alphaMode": "OPAQUE",
      "doubleSided": true,
      "extensions": {
        "KHR_materials_specular": {
          "specularFactor": 0,
          "specularColorFactor": [
            1,
            1,
            1
          ]
        }
      }
    },
    {
      "name": "ABS_(White)",
      "pbrMetallicRoughness": {
        "baseColorFactor": [
          0.8,
          0.8,
          0.8,
          1
        ],
        "metallicFactor": 0,
        "roughnessFactor": 1
      },
      "emissiveFactor": [
        0,
        0,
        0
      ],
      "alphaMode": "OPAQUE",
      "doubleSided": true,
      "extensions": {
        "KHR_materials_specular": {
          "specularFactor": 0,
          "specularColorFactor": [
            1,
            1,
            1
          ]
        }
      }
    },
    {
      "name": "Tough_2000_(with_Formlabs_SLA_3D_Printers)",
      "pbrMetallicRoughness": {
        "baseColorFactor": [
          0.8,
          0.8,
          0.8,
          1
        ],
        "metallicFactor": 0,
        "roughnessFactor": 1
      },
      "emissiveFactor": [
        0,
        0,
        0
      ],
      "alphaMode": "OPAQUE",
      "doubleSided": true,
      "extensions": {
        "KHR_materials_specular": {
          "specularFactor": 0,
          "specularColorFactor": [
            1,
            1,
            1
          ]
        }
      }
    }
  ],
  "extensionsUsed": [
    "KHR_node_visibility",
    "KHR_materials_specular"
  ]
}